<svg width="154" height="154" viewBox="0 0 154 154" fill="none" xmlns="http://www.w3.org/2000/svg">
<g filter="url(#filter0_b_1_1437)">
<circle cx="77" cy="77" r="76" fill="white" fill-opacity="0.05"/>
<circle cx="77" cy="77" r="76.5" stroke="white" stroke-opacity="0.2"/>
</g>
<circle cx="77" cy="77" r="69" fill="#01B8FF"/>
<g clip-path="url(#clip0_1_1437)">
<path d="M77.5044 105.988C69.0436 105.988 60.5835 105.967 52.1227 106C49.5947 106.01 47.9361 103.98 48.0019 101.845C48.0917 98.9438 48.4621 96.0978 49.5511 93.3839C50.2229 91.7089 51.1544 90.2066 52.6125 89.0872C53.5556 88.3631 54.6563 87.9279 55.7287 87.4497C59.6477 85.7015 63.7212 84.4365 67.9276 83.5925C67.9479 83.5882 67.9688 83.587 67.9879 83.5802C68.712 83.3171 69.2799 83.5562 69.9209 83.9656C74.243 86.7238 78.7791 87.1424 83.4728 84.9805C84.2726 84.6123 84.9869 84.0548 85.7295 83.5679C85.9011 83.4554 86.0389 83.3958 86.2561 83.4358C91.4881 84.3965 96.5004 86.0224 101.271 88.3779C102.988 89.2256 104.126 90.6363 104.977 92.3046C105.906 94.1283 106.428 96.0812 106.694 98.0974C106.857 99.3422 106.967 100.6 106.999 101.855C107.061 104.265 105.324 105.988 102.918 105.988C94.4474 105.988 85.9762 105.988 77.5056 105.988H77.5044Z" fill="black"/>
<path d="M63.6965 61.4703C63.6824 59.2727 63.9752 57.1379 64.8316 55.1051C66.4706 51.2141 69.3296 48.6712 73.4087 47.5819C77.0742 46.6027 80.6875 46.8222 84.115 48.5236C87.7111 50.3087 89.8687 53.2727 90.8451 57.1287C91.2352 58.6685 91.3256 60.2378 91.2635 61.8188C91.1521 64.6728 90.711 67.4734 89.8626 70.2038C88.96 73.1082 87.6994 75.8326 85.7294 78.1844C84.2768 79.919 82.5548 81.3045 80.3565 81.9629C76.9038 82.9968 73.8043 82.2247 71.0462 79.9762C69.2466 78.5089 67.9392 76.647 66.8915 74.597C65.3731 71.6262 64.4723 68.463 64.0497 65.164C63.8928 63.9376 63.8122 62.7021 63.6971 61.4703H63.6965Z" fill="black"/>
</g>
<defs>
<filter id="filter0_b_1_1437" x="-39.7343" y="-39.7343" width="233.469" height="233.469" filterUnits="userSpaceOnUse" color-interpolation-filters="sRGB">
<feFlood flood-opacity="0" result="BackgroundImageFix"/>
<feGaussianBlur in="BackgroundImageFix" stdDeviation="19.8671"/>
<feComposite in2="SourceAlpha" operator="in" result="effect1_backgroundBlur_1_1437"/>
<feBlend mode="normal" in="SourceGraphic" in2="effect1_backgroundBlur_1_1437" result="shape"/>
</filter>
<clipPath id="clip0_1_1437">
<rect width="59" height="59" fill="white" transform="translate(48 47)"/>
</clipPath>
</defs>
</svg>
