<svg width="32" height="32" viewBox="0 0 32 32" fill="none" xmlns="http://www.w3.org/2000/svg">
<g opacity="0.32">
<path d="M19.5301 24.73C17.8101 24.73 16.0901 24.72 14.3601 24.73C13.6801 24.73 13.1301 24.52 12.6401 24.07C12.3401 23.79 12.0301 23.52 11.7001 23.28C10.8701 22.69 9.50008 22.68 8.65008 23.47C8.44008 23.67 8.22008 23.86 8.01008 24.06C7.55008 24.5 7.01008 24.73 6.36008 24.73C5.42008 24.72 4.49008 24.75 3.55008 24.71C2.26008 24.66 1.31008 23.9 1.13008 22.63C1.00008 21.69 1.22008 20.84 1.89008 20.14C1.98008 20.05 1.95008 19.98 1.91008 19.89C1.54008 19 1.43008 18.06 1.49008 17.11C1.57008 15.96 1.88008 14.86 2.37008 13.82C2.64008 13.24 2.96008 12.67 3.29008 12.12C3.81008 11.25 4.74008 11.02 5.64008 11.5C6.14008 11.77 6.64008 12.06 7.15008 12.31C7.94008 12.7 8.76008 13 9.63008 13.15C10.7701 13.34 11.8601 13.24 12.8701 12.63C12.9801 12.56 13.0101 12.51 12.9601 12.39C12.6201 11.51 12.3601 10.61 12.2301 9.68001C12.1701 9.18001 12.1401 8.69001 12.2801 8.19001C12.5201 7.35001 13.2801 7.02001 14.0201 7.49001C15.0601 8.15001 16.0901 8.83001 17.1001 9.53001C20.7701 12.07 24.3701 14.71 27.9501 17.37C28.5901 17.84 29.2501 18.29 29.7901 18.89C30.2201 19.36 30.5801 19.88 30.7901 20.49C31.1801 21.61 30.8701 22.63 29.9401 23.35C29.3001 23.85 28.5601 24.13 27.7801 24.32C26.6201 24.61 25.4301 24.7 24.2401 24.7C22.6701 24.7 21.1001 24.7 19.5301 24.7V24.73ZM18.9501 14.54C17.5201 16.41 16.1101 18.26 14.6701 20.14C14.7701 20.14 14.8301 20.15 14.8901 20.15C15.3701 20.15 15.8601 20.15 16.3401 20.15C16.4701 20.15 16.5601 20.11 16.6401 20C17.7401 18.49 18.8501 16.99 19.9601 15.49C20.0001 15.44 20.0401 15.39 20.0901 15.33C20.8801 15.89 21.6601 16.44 22.4501 16.99C21.6801 18.04 20.9101 19.08 20.1301 20.14C20.2201 20.14 20.2701 20.15 20.3201 20.15C20.6501 20.15 20.9901 20.15 21.3201 20.15C22.5101 20.14 23.6901 20.19 24.8701 20.04C25.3301 19.98 25.7801 19.89 26.1901 19.66C26.6401 19.4 26.7601 19.03 26.5301 18.57C26.2701 18.05 25.8501 17.65 25.3901 17.31C23.9001 16.22 22.4201 15.12 20.9201 14.04C18.6101 12.37 16.2901 10.71 13.9101 9.15001C13.8401 9.11001 13.7701 9.06001 13.6901 9.01001C13.6901 9.07001 13.6801 9.11001 13.6901 9.14001C13.7501 9.53001 13.7701 9.94001 13.8801 10.32C14.0401 10.93 14.2501 11.53 14.4601 12.13C14.6901 12.8 14.5601 13.26 13.9901 13.67C13.6001 13.95 13.1801 14.18 12.7301 14.34C11.5001 14.8 10.2401 14.79 8.97008 14.5C7.62008 14.19 6.38008 13.61 5.19008 12.91C5.09008 12.85 4.99008 12.79 4.89008 12.74C4.76008 12.68 4.66008 12.71 4.58008 12.83C3.74008 14.15 3.09008 15.54 2.97008 17.13C2.89008 18.13 3.10008 19.07 3.60008 19.94C3.68008 20.07 3.76008 20.12 3.92008 20.12C6.22008 20.12 8.53008 20.12 10.8301 20.12C10.9801 20.12 11.0701 20.07 11.1701 19.95C12.9401 17.63 14.7101 15.31 16.4801 12.99C16.5201 12.94 16.5601 12.89 16.6001 12.84C17.3901 13.4 18.1701 13.94 18.9601 14.5L18.9501 14.54Z" fill="white"/>
</g>
</svg>
