<svg width="32" height="32" viewBox="0 0 32 32" fill="none" xmlns="http://www.w3.org/2000/svg">
<path d="M12.5254 14.3854C12.9895 14.3854 13.3661 14.0121 13.3661 13.5521V10.3021C13.3661 8.84917 14.5586 7.66667 16.0244 7.66667C17.4901 7.66667 18.683 8.84917 18.683 10.3021V13.5521C18.683 14.0121 19.0593 14.3854 19.5237 14.3854C19.9878 14.3854 20.3644 14.0121 20.3644 13.5521V10.3021C20.3648 7.93 18.4178 6 16.0244 6C13.6318 6 11.6847 7.93 11.6847 10.3021V13.5521C11.6847 14.0121 12.0614 14.3854 12.5254 14.3854Z" fill="white"/>
<path d="M25.6679 12.5129H21.2055V13.5521C21.2055 14.4713 20.4514 15.2188 19.5242 15.2188C18.5969 15.2188 17.8428 14.4713 17.8428 13.5521V12.5129H14.2072V13.5521C14.2072 14.4713 13.4531 15.2188 12.5258 15.2188C11.5986 15.2188 10.8445 14.4713 10.8445 13.5521V12.5129H6.33208C6.10005 12.5129 5.95671 12.6942 6.01177 12.9175L8.95334 24.7913C9.13073 25.4587 9.83943 26 10.5355 26H21.4645C22.1614 26 22.8692 25.4587 23.0475 24.7913L25.9882 12.9175C26.0433 12.6938 25.9004 12.5129 25.6679 12.5129Z" fill="white"/>
</svg>
