<svg width="32" height="32" viewBox="0 0 32 32" fill="none" xmlns="http://www.w3.org/2000/svg">
<g opacity="0.32">
<path d="M16 27C12.8411 27 9.68922 27 6.53031 27C5.82131 27 5.23867 26.5671 5.05616 25.9039C5.02106 25.7642 5 25.6176 5 25.471C5 23.572 5 21.6729 5 19.7739C5 19.1874 5.40013 18.7895 5.98979 18.7895C7.07786 18.7895 8.16592 18.7895 9.25399 18.7895C9.90683 18.7895 10.5526 18.7895 11.2055 18.7895C11.5073 18.7895 11.6477 18.6498 11.6477 18.3496C11.6477 17.5258 11.6477 16.7019 11.6477 15.8781C11.6477 15.4592 11.8232 15.145 12.2093 14.9705C12.3287 14.9146 12.4761 14.8867 12.6094 14.8867C14.8698 14.8867 17.1302 14.8867 19.3906 14.8867C19.9592 14.8867 20.3523 15.2986 20.3523 15.8781C20.3523 16.7927 20.3523 17.7073 20.3523 18.6219C20.3523 19.5435 20.3523 20.4651 20.3523 21.3867C20.3523 21.7078 20.4927 21.8475 20.8086 21.8475C22.5424 21.8475 24.2693 21.8475 26.0032 21.8475C26.4595 21.8475 26.8105 22.0779 26.9438 22.4758C26.9789 22.5875 27 22.7132 27 22.8249C27 23.7046 27 24.5843 27 25.464C27 26.3437 26.3401 27 25.4556 27C22.3038 27 19.1519 27 16 27Z" fill="white"/>
<path d="M18.1551 12.7153C18.0779 12.6874 17.9936 12.6665 17.9234 12.6316C17.404 12.3593 16.8845 12.094 16.365 11.8147C16.2738 11.7658 16.2106 11.7728 16.1264 11.8147C15.6069 12.094 15.0804 12.3663 14.5609 12.6385C14.3784 12.7363 14.1959 12.7223 14.0625 12.5967C13.9502 12.4989 13.9011 12.3732 13.9292 12.2266C14.0274 11.6332 14.1327 11.0397 14.238 10.4463C14.2521 10.3485 14.238 10.2787 14.1678 10.2089C13.7396 9.79698 13.3255 9.38506 12.9043 8.97313C12.7428 8.81255 12.7147 8.6031 12.82 8.42856C12.8902 8.31685 12.9955 8.25401 13.1219 8.24005C13.7256 8.14929 14.3293 8.06551 14.933 7.98172C15.0032 7.97474 15.0383 7.93983 15.0734 7.88398C15.3401 7.3394 15.6069 6.80181 15.8736 6.26421C15.986 6.0408 16.1966 5.95004 16.4071 6.02684C16.5265 6.06873 16.6037 6.15949 16.6528 6.2712C16.9126 6.80879 17.1793 7.3394 17.4391 7.877C17.4742 7.9538 17.5163 7.98172 17.6005 7.98871C18.1972 8.07249 18.7939 8.15627 19.3906 8.24703C19.5661 8.27496 19.6854 8.36572 19.7415 8.54026C19.7907 8.70783 19.7556 8.85444 19.6292 8.98011C19.201 9.39902 18.7728 9.81792 18.3376 10.2368C18.2744 10.2997 18.2604 10.3555 18.2744 10.4393C18.3797 11.0397 18.485 11.6402 18.5833 12.2406C18.6254 12.4919 18.4288 12.7223 18.1621 12.7363L18.1551 12.7153Z" fill="white"/>
</g>
</svg>
