<svg width="32" height="32" viewBox="0 0 32 32" fill="none" xmlns="http://www.w3.org/2000/svg">
<g opacity="0.32">
<path d="M18.3132 14.31C17.8832 15.29 17.4532 16.26 17.0232 17.24C17.2732 17.24 17.5032 17.24 17.7332 17.24C18.4732 17.24 19.2232 17.24 19.9632 17.24C20.4432 17.24 20.8332 17.43 21.1132 17.81C22.4932 19.71 23.8632 21.61 25.2432 23.51C25.4732 23.82 25.5332 24.16 25.3932 24.53C25.1232 25.22 24.2532 25.41 23.7132 24.88C23.2232 24.4 22.7432 23.91 22.2632 23.42C21.3132 22.43 20.3732 21.44 19.4332 20.45C19.3532 20.37 19.2832 20.35 19.1732 20.35C18.2232 20.42 17.2732 20.49 16.3232 20.55C15.5832 20.6 14.8332 20.64 14.0932 20.69C14.0132 20.69 13.9232 20.75 13.8732 20.81C12.7632 22.15 11.6632 23.5 10.5532 24.85C10.0032 25.52 9.26323 25.66 8.53323 25.18C6.85323 24.09 5.17323 23 3.50323 21.91C3.15323 21.68 2.97323 21.36 3.00323 20.95C3.06323 20.22 3.77323 19.78 4.46323 20.07C5.27323 20.4 6.08323 20.75 6.88323 21.11C7.51323 21.39 8.14323 21.68 8.78323 21.96C8.81323 21.91 8.85323 21.86 8.88323 21.82C9.66323 20.64 10.4332 19.45 11.2132 18.27C11.2432 18.22 11.2832 18.16 11.3032 18.11C12.0932 16.18 12.8732 14.25 13.6532 12.32C13.6632 12.29 13.6832 12.25 13.6932 12.21C13.5332 12.12 13.3632 12.03 13.2032 11.94C12.6232 11.62 12.0432 11.3 11.4532 10.98C11.3832 10.94 11.2832 10.93 11.2132 10.95C10.0632 11.29 8.91323 11.64 7.76323 11.99C7.06323 12.2 6.37323 11.7 6.40323 10.98C6.42323 10.57 6.62323 10.25 7.00323 10.08C8.35323 9.47 9.70323 8.87 11.0632 8.27C11.3732 8.13 11.6732 8.15 11.9832 8.29C13.1832 8.82 14.3732 9.35 15.5732 9.88C17.6532 10.8 19.7432 11.73 21.8232 12.66C21.9232 12.7 22.0032 12.71 22.1032 12.66C23.6832 12.03 25.2632 11.4 26.8532 10.77C27.3932 10.55 27.9732 10.77 28.2132 11.28C28.4532 11.79 28.2432 12.38 27.7232 12.64C25.9932 13.53 24.2532 14.41 22.5132 15.3C22.1832 15.47 21.8532 15.49 21.5032 15.37C20.4932 15.03 19.4832 14.7 18.4732 14.37C18.4332 14.36 18.3832 14.34 18.3232 14.32L18.3132 14.31Z" fill="white"/>
<path d="M20.0632 6C21.3232 6 22.3432 7.03 22.3432 8.29C22.3432 9.54 21.3232 10.56 20.0632 10.57C18.7932 10.57 17.7632 9.55 17.7632 8.28C17.7732 7.02 18.8032 6 20.0632 6Z" fill="white"/>
</g>
</svg>
