<svg width="32" height="32" viewBox="0 0 32 32" fill="none" xmlns="http://www.w3.org/2000/svg">
<path d="M19.5303 24.73C17.8103 24.73 16.0903 24.72 14.3603 24.73C13.6803 24.73 13.1303 24.52 12.6403 24.07C12.3403 23.79 12.0303 23.52 11.7003 23.28C10.8703 22.69 9.50032 22.68 8.65032 23.47C8.44032 23.67 8.22032 23.86 8.01032 24.06C7.55032 24.5 7.01032 24.73 6.36032 24.73C5.42032 24.72 4.49032 24.75 3.55032 24.71C2.26032 24.66 1.31032 23.9 1.13032 22.63C1.00032 21.69 1.22032 20.84 1.89032 20.14C1.98032 20.05 1.95032 19.98 1.91032 19.89C1.54032 19 1.43032 18.06 1.49032 17.11C1.57032 15.96 1.88032 14.86 2.37032 13.82C2.64032 13.24 2.96032 12.67 3.29032 12.12C3.81032 11.25 4.74032 11.02 5.64032 11.5C6.14032 11.77 6.64032 12.06 7.15032 12.31C7.94032 12.7 8.76032 13 9.63032 13.15C10.7703 13.34 11.8603 13.24 12.8703 12.63C12.9803 12.56 13.0103 12.51 12.9603 12.39C12.6203 11.51 12.3603 10.61 12.2303 9.68001C12.1703 9.18001 12.1403 8.69001 12.2803 8.19001C12.5203 7.35001 13.2803 7.02001 14.0203 7.49001C15.0603 8.15001 16.0903 8.83001 17.1003 9.53001C20.7703 12.07 24.3703 14.71 27.9503 17.37C28.5903 17.84 29.2503 18.29 29.7903 18.89C30.2203 19.36 30.5803 19.88 30.7903 20.49C31.1803 21.61 30.8703 22.63 29.9403 23.35C29.3003 23.85 28.5603 24.13 27.7803 24.32C26.6203 24.61 25.4303 24.7 24.2403 24.7C22.6703 24.7 21.1003 24.7 19.5303 24.7V24.73ZM18.9503 14.54C17.5203 16.41 16.1103 18.26 14.6703 20.14C14.7703 20.14 14.8303 20.15 14.8903 20.15C15.3703 20.15 15.8603 20.15 16.3403 20.15C16.4703 20.15 16.5603 20.11 16.6403 20C17.7403 18.49 18.8503 16.99 19.9603 15.49C20.0003 15.44 20.0403 15.39 20.0903 15.33C20.8803 15.89 21.6603 16.44 22.4503 16.99C21.6803 18.04 20.9103 19.08 20.1303 20.14C20.2203 20.14 20.2703 20.15 20.3203 20.15C20.6503 20.15 20.9903 20.15 21.3203 20.15C22.5103 20.14 23.6903 20.19 24.8703 20.04C25.3303 19.98 25.7803 19.89 26.1903 19.66C26.6403 19.4 26.7603 19.03 26.5303 18.57C26.2703 18.05 25.8503 17.65 25.3903 17.31C23.9003 16.22 22.4203 15.12 20.9203 14.04C18.6103 12.37 16.2903 10.71 13.9103 9.15001C13.8403 9.11001 13.7703 9.06001 13.6903 9.01001C13.6903 9.07001 13.6803 9.11001 13.6903 9.14001C13.7503 9.53001 13.7703 9.94001 13.8803 10.32C14.0403 10.93 14.2503 11.53 14.4603 12.13C14.6903 12.8 14.5603 13.26 13.9903 13.67C13.6003 13.95 13.1803 14.18 12.7303 14.34C11.5003 14.8 10.2403 14.79 8.97032 14.5C7.62033 14.19 6.38032 13.61 5.19032 12.91C5.09032 12.85 4.99032 12.79 4.89032 12.74C4.76032 12.68 4.66032 12.71 4.58032 12.83C3.74032 14.15 3.09032 15.54 2.97032 17.13C2.89032 18.13 3.10032 19.07 3.60032 19.94C3.68032 20.07 3.76032 20.12 3.92032 20.12C6.22032 20.12 8.53032 20.12 10.8303 20.12C10.9803 20.12 11.0703 20.07 11.1703 19.95C12.9403 17.63 14.7103 15.31 16.4803 12.99C16.5203 12.94 16.5603 12.89 16.6003 12.84C17.3903 13.4 18.1703 13.94 18.9603 14.5L18.9503 14.54Z" fill="white"/>
</svg>
